#!OML:ASF F:\VICON\USERDATA\INSTALL\rory3\rory3.ASF
:FULLY-SPECIFIED
:DEGREES
131
root -0.387013 16.1894 -8.35293 -0.475849 -2.9733 4.79257
lowerback 12.3603 1.67908 -7.43255
upperback -4.56745 0.98975 0.142659
thorax -12.1672 1.05076 4.13157
lowerneck -9.08969 -5.03025 -3.33788
upperneck 18.057 -6.91915 2.80924
head 7.24372 -3.30768 0.835952
rclavicle 2.21148e-015 2.0276e-014
rhumerus -39.7934 -11.7419 -76.8221
rradius 20.5367
rwrist 9.43978
rhand -11.0089 23.6044
rfingers 7.12502
rthumb 15.0119 -5.83141
lclavicle 2.21148e-015 2.0276e-014
lhumerus -35.7947 9.16594 82.5038
lradius 19.2211
lwrist -3.3218
lhand -5.21481 19.4165
lfingers 7.12502
lthumb 20.587 48.3448
rfemur -9.04921 -0.92379 14.8749
rtibia 65.4639
rfoot 30.4218 -8.86088
rtoes 7.16843
lfemur -18.8408 -8.33185 -30.1762
ltibia 31.4214
lfoot -8.51919 6.09714
ltoes 25.3418
132
root -0.379908 16.1968 -8.22475 -0.543355 -3.10525 5.20766
lowerback 12.3414 1.69338 -7.90044
upperback -4.46052 0.923889 0.0529493
thorax -12.0389 1.0434 4.3131
lowerneck -9.24996 -5.00696 -3.23817
upperneck 17.9491 -6.87498 2.70505
head 7.22812 -3.28774 0.787339
rclavicle -1.50828e-014 9.14409e-015
rhumerus -40.0317 -12.3704 -76.3908
rradius 19.8251
rwrist 10.0351
rhand -9.75325 21.619
rfingers 7.12502
rthumb 16.2213 -7.72239
lclavicle -1.50828e-014 9.14409e-015
lhumerus -35.2767 8.82165 82.7063
lradius 19.4788
lwrist -2.91857
lhand -5.34202 18.8266
lfingers 7.12502
lthumb 20.4648 47.7681
rfemur -10.8697 -1.1614 14.3511
rtibia 67.5816
rfoot 27.5658 -11.8451
rtoes 9.76571
lfemur -17.9378 -8.31794 -30.7725
ltibia 30.9404
lfoot -8.9518 6.19626
ltoes 26.0415
133
root -0.37034 16.1975 -8.09089 -0.645166 -3.371 5.45043
lowerback 12.3202 1.70213 -8.14037
upperback -4.41883 0.891453 -0.00562282
thorax -11.981 1.03994 4.39182
lowerneck -9.26287 -4.93394 -3.09437
upperneck 17.9481 -6.7683 2.54789
head 7.21578 -3.24086 0.723335
rclavicle 1.98785e-016 2.38542e-015
rhumerus -40.506 -12.7984 -75.9958
rradius 19.3711
rwrist 10.7302
rhand -9.00705 20.1634
rfingers 7.12502
rthumb 16.9396 -9.11789
lclavicle 1.98785e-016 2.38542e-015
lhumerus -35.0251 8.34885 82.8909
lradius 19.7633
lwrist -2.50465
lhand -5.52145 18.8952
lfingers 7.12502
lthumb 20.2923 47.8552
rfemur -12.5073 -1.25454 14.084
rtibia 69.4624
rfoot 25.4996 -11.8758
rtoes 9.30101
lfemur -17.0077 -8.32608 -31.1987
ltibia 30.5678
lfoot -9.49004 6.39195
ltoes 26.3944
134
root -0.364985 16.1991 -7.96325 -0.750304 -3.57347 5.4602
lowerback 12.3703 1.70781 -8.17033
upperback -4.37913 0.889997 -0.0127956
thorax -11.9663 1.03936 4.40113
lowerneck -9.33027 -4.86115 -3.0195
upperneck 18.1269 -6.66683 2.45173
head 7.27672 -3.19364 0.6862
rclavicle 4.29872e-014 1.07344e-014
rhumerus -40.9281 -13.6455 -75.459
rradius 18.795
rwrist 11.7074
rhand -9.21973 20.489
rfingers 7.12502
rthumb 16.7349 -8.80968
lclavicle 4.29872e-014 1.07344e-014
lhumerus -34.8285 7.85429 83.0215
lradius 20.1506
lwrist -1.92605
lhand -5.61698 19.0929
lfingers 7.12502
lthumb 20.2005 48.0626
rfemur -14.1518 -1.29457 14.1869
rtibia 71.1622
rfoot 23.637 -10.6548
rtoes 6.46335
lfemur -16.1847 -8.32187 -31.3517
ltibia 30.2995
lfoot -9.92909 6.54242
ltoes 26.3541
135
root -0.35943 16.2011 -7.84134 -0.870644 -3.53214 5.4132
lowerback 12.5642 1.61589 -8.19544
upperback -4.31479 0.755296 0.0688942
thorax -11.9918 0.980738 4.53646
lowerneck -9.54683 -4.73753 -3.0945
upperneck 18.2262 -6.47983 2.44473
head 7.34436 -3.10648 0.707374
rclavicle -9.29318e-015 -1.86858e-014
rhumerus -41.2369 -14.3281 -74.8649
rradius 18.2856
rwrist 12.6193
rhand -9.2658 20.6571
rfingers 7.12502
rthumb 16.6906 -8.64534
lclavicle -9.29318e-015 -1.86858e-014
lhumerus -34.5268 7.80198 83.0612
lradius 20.3263
lwrist -1.70297
lhand -5.79901 19.3186
lfingers 7.12502
lthumb 20.0256 48.3067
rfemur -15.6577 -1.50176 14.3936
rtibia 72.64
rfoot 21.412 -8.91708
rtoes 3.12397
lfemur -15.454 -8.63946 -31.4574
ltibia 30.1598
lfoot -10.3868 6.76919
ltoes 26.3469
136
root -0.353052 16.1999 -7.71304 -1.01727 -3.45234 5.42155
lowerback 12.6989 1.54093 -8.21245
upperback -4.26681 0.644969 0.107368
thorax -12.0025 0.930803 4.61425
lowerneck -9.77113 -4.66766 -3.01568
upperneck 18.295 -6.37056 2.32718
head 7.39676 -3.05629 0.660815
rclavicle 8.3738e-015 3.18055e-015
rhumerus -41.7675 -14.6751 -74.4011
rradius 17.9621
rwrist 12.9995
rhand -8.99712 20.1962
rfingers 7.12502
rthumb 16.9492 -9.08426
lclavicle 8.3738e-015 3.18055e-015
lhumerus -34.342 7.5493 83.1892
lradius 20.4958
lwrist -1.49831
lhand -6.26403 19.3895
lfingers 7.12502
lthumb 19.5785 48.4237
rfemur -16.9546 -1.82539 14.5408
rtibia 73.898
rfoot 18.964 -5.98225
rtoes -3.94851
lfemur -14.6319 -8.96327 -31.6653
ltibia 29.9793
lfoot -10.773 7.08745
ltoes 25.6461
